<!-- icon666.com - MILLIONS vector ICONS FREE --><svg id="Capa_1" enable-background="new 0 0 512 512" viewBox="0 0 512 512" xmlns="http://www.w3.org/2000/svg"><g><path d="m254.812.002c-80.272.591-145.65 68.658-145.739 151.73-.103 81.181 52.94 95.18 52.94 182.629 0 .01-.004.904-.004 52.357 0 6.796 1.948 13.405 5.633 19.113.455.705.968 1.369 1.533 1.988l27.382 29.941v14.923c0 32.707 26.609 59.315 59.316 59.315s59.316-26.608 59.316-59.315v-14.923l27.382-29.941c.565-.619 1.079-1.283 1.533-1.988 3.685-5.708 5.633-12.317 5.633-19.113 0-97.042-2.823-89.46 35.404-162.758 53.024-101.636-18.99-224.58-130.329-223.958zm30.376 452.683c0 16.165-13.151 29.315-29.316 29.315s-29.316-13.15-29.316-29.315v-5.748h58.632zm34.548-65.966c0 .725-.149 1.435-.435 2.091l-25.722 28.127h-75.414l-25.722-28.127c-.286-.656-.435-1.366-.435-2.091v-30.218h127.728zm38.806-176.632c-22.865 43.852-37.361 66.132-38.707 116.414h-127.924c-2.368-88.819-52.926-105.783-52.837-174.734.113-106.067 123.012-161.932 197.281-88.199 40.304 40.014 46.103 100.674 22.187 146.519z" fill="#000000" style="fill: rgb(1, 89, 157);"></path><path d="m301.075 180.809c-27.535-19.495-61.831-20.226-90.403-.001-6.762 4.786-8.363 14.147-3.577 20.909 4.786 6.763 14.147 8.362 20.909 3.577 17.414-12.325 37.814-12.69 55.737 0 6.761 4.786 16.123 3.184 20.91-3.576 4.786-6.761 3.185-16.123-3.576-20.909z" fill="#000000" style="fill: rgb(1, 89, 157);"></path><path d="m326.747 128.786c-43.073-30.494-97.975-30.99-141.748 0-6.761 4.786-8.362 14.147-3.576 20.909 4.787 6.762 14.148 8.362 20.91 3.575 32.438-22.962 73.401-23.841 107.08 0 6.756 4.786 16.121 3.188 20.91-3.575 4.786-6.762 3.185-16.123-3.576-20.909z" fill="#000000" style="fill: rgb(1, 89, 157);"></path><path d="m253.023 226.026c-7.02 1.322-12.213 7.363-12.221 14.719-.011 9.652 9.084 16.836 18.509 14.624 6.722-1.558 11.71-7.612 11.632-14.775-.101-9.315-8.699-16.344-17.92-14.568z" fill="#000000" style="fill: rgb(1, 89, 157);"></path></g></svg>