<!-- icon666.com - MILLIONS vector ICONS FREE --><svg version="1.1" id="Capa_1" xmlns="http://www.w3.org/2000/svg" xmlns:xlink="http://www.w3.org/1999/xlink" x="0px" y="0px" viewBox="0 0 480 480" style="enable-background:new 0 0 480 480;" xml:space="preserve"><path style="fill: rgb(252, 252, 252);" d="M8,176v240h112V176H8z" fill="#78B9EB"></path><g><path style="fill: rgb(1, 89, 157);" d="M478.208,310.976c-0.232-0.568-0.544-1.088-0.8-1.6c-0.38-0.8-0.802-1.58-1.264-2.336 c-0.344-0.528-0.752-1.008-1.136-1.512s-0.704-1.032-1.12-1.496c0.416-0.464,0.744-1,1.12-1.496s0.8-0.984,1.136-1.52 c0.464-0.752,0.886-1.529,1.264-2.328c0.272-0.544,0.584-1.064,0.8-1.6c0.354-0.933,0.65-1.887,0.888-2.856 c0.136-0.504,0.328-0.984,0.432-1.504c0.312-1.557,0.47-3.14,0.472-4.728v-32c-0.009-1.504-0.162-3.005-0.456-4.48 c-0.088-0.472-0.232-0.92-0.352-1.384c-0.239-0.963-0.533-1.911-0.88-2.84c-0.2-0.504-0.424-0.984-0.656-1.472 c-0.395-0.824-0.835-1.625-1.32-2.4c-0.28-0.464-0.56-0.912-0.88-1.344c-0.562-0.776-1.171-1.516-1.824-2.216 c-0.32-0.352-0.608-0.712-0.952-1.048c-0.947-0.915-1.963-1.754-3.04-2.512c-0.089-0.062-0.174-0.129-0.256-0.2 c-1.189-0.788-2.445-1.47-3.752-2.04c-0.424-0.184-0.88-0.312-1.32-0.48c-0.664-0.248-1.312-0.536-2-0.728 c0.317-0.858,0.584-1.735,0.8-2.624c0.136-0.512,0.344-0.992,0.448-1.52c0.302-1.552,0.449-3.131,0.44-4.712v-32 c0-13.255-10.745-24-24-24H240V56c-0.026-22.08-17.92-39.974-40-40h-32c-13.255,0-24,10.745-24,24v128H8c-4.418,0-8,3.582-8,8v240 c0,4.418,3.582,8,8,8h111.6c12.141,24.47,37.083,39.963,64.4,40h240c13.255,0,24-10.745,24-24l0,0v-56 c-0.009-1.512-0.161-3.021-0.456-4.504c-0.088-0.472-0.24-0.904-0.352-1.36c-0.184-0.712-0.32-1.448-0.56-2.136H456 c13.255,0,24-10.745,24-24v-32c-0.006-1.566-0.164-3.128-0.472-4.664c-0.104-0.52-0.296-1-0.432-1.504 C478.862,312.862,478.565,311.908,478.208,310.976L478.208,310.976z M296,296c-13.255,0-24-10.745-24-24s10.745-24,24-24h160 c4.418,0,8,3.582,8,8v32c0,4.418-3.582,8-8,8H296z M440,184c4.418,0,8,3.582,8,8v32c0,4.418-3.582,8-8,8H328 c-13.255,0-24-10.745-24-24c0-13.255,10.745-24,24-24H440z M112,408H16V184h96V408z M424,448H184 c-30.913-0.035-55.965-25.087-56-56V184h24c4.418,0,8-3.582,8-8V40c0-4.418,3.582-8,8-8h32c13.255,0,24,10.745,24,24v120 c-0.044,39.746-32.254,71.956-72,72v16c45.47-0.06,83.421-34.722,87.592-80H296.2c-10.941,14.13-10.941,33.87,0,48H296 c-22.091,0-40,17.909-40,40s17.909,40,40,40h0.2c-13.325,17.343-10.067,42.204,7.276,55.528c3.277,2.518,6.928,4.507,10.82,5.896 c-14.762,16.322-13.496,41.521,2.826,56.283c7.364,6.66,16.949,10.331,26.878,10.293h80c2.732-0.027,5.438-0.524,8-1.472V440 C432,444.418,428.418,448,424,448L424,448z M424,376c4.418,0,8,3.582,8,8v32c0,4.418-3.582,8-8,8h-80c-13.255,0-24-10.745-24-24 s10.745-24,24-24H424z M464,352c0,4.418-3.582,8-8,8H328c-13.255,0-24-10.745-24-24s10.745-24,24-24h128c4.418,0,8,3.582,8,8V352z" fill="#1E81CE"></path><path style="fill: rgb(1, 89, 157);" d="M32,376h16v16H32V376z" fill="#1E81CE"></path><path style="fill: rgb(1, 89, 157);" d="M32,344h16v16H32V344z" fill="#1E81CE"></path></g></svg>